<svg width="30" height="30" viewBox="0 0 30 30" fill="none" xmlns="http://www.w3.org/2000/svg">
<g clip-path="url(#clip0_63_11)">
<path d="M22.5 10.625C22.5 11.4538 22.1708 12.2486 21.5847 12.8347C20.9987 13.4207 20.2038 13.75 19.375 13.75C18.5462 13.75 17.7514 13.4207 17.1653 12.8347C16.5792 12.2486 16.25 11.4538 16.25 10.625C16.25 9.79617 16.5792 9.00132 17.1653 8.41527C17.7514 7.82922 18.5462 7.49998 19.375 7.49998C20.2038 7.49998 20.9987 7.82922 21.5847 8.41527C22.1708 9.00132 22.5 9.79617 22.5 10.625ZM22.4925 19.2075C22.4238 21.1936 21.928 23.1415 21.0388 24.9187C20.2194 26.4682 18.9892 27.7621 17.4829 28.6584C15.9767 29.5547 14.2527 30.0189 12.5 30H11.25V23.125C11.2444 21.9664 10.7817 20.8568 9.96243 20.0376C9.14316 19.2183 8.03361 18.7556 6.87501 18.75H6.71958e-06V17.5C-0.0189162 15.7473 0.445249 14.0233 1.34158 12.5171C2.23792 11.0108 3.53179 9.78056 5.08126 8.96123C6.85846 8.07198 8.80643 7.57614 10.7925 7.50748C12.6136 5.15527 14.9522 3.25439 17.6269 1.95239C20.3016 0.650384 23.2403 -0.0177074 26.215 -2.41159e-05C26.71 -0.00315189 27.2007 0.0914545 27.6591 0.278371C28.1174 0.465287 28.5344 0.740836 28.886 1.08922C29.2376 1.4376 29.517 1.85197 29.7082 2.30856C29.8994 2.76515 29.9985 3.25498 30 3.74998C30.0212 6.73024 29.3548 9.67526 28.0528 12.3561C26.7507 15.037 24.848 17.3815 22.4925 19.2075ZM2.60501 16.25H5.43251C6.36081 14.1825 7.4513 12.1917 8.69376 10.2962C7.83077 10.497 6.99455 10.7991 6.20251 11.1962C5.24993 11.6992 4.42838 12.4183 3.80367 13.2959C3.17896 14.1735 2.76845 15.1852 2.60501 16.25ZM19.7038 21.3062C17.8083 22.5487 15.8175 23.6392 13.75 24.5675V27.395C14.8148 27.2315 15.8265 26.821 16.7041 26.1963C17.5816 25.5716 18.3007 24.7501 18.8038 23.7975C19.2009 23.0054 19.503 22.1692 19.7038 21.3062ZM27.5 3.71498C27.4909 3.38956 27.3552 3.08054 27.1217 2.85363C26.8883 2.62673 26.5756 2.49985 26.25 2.49998C19.8 2.68373 15.4375 5.15498 11.2275 11.0275C10.0527 12.719 9.01959 14.5046 8.13876 16.3662C9.50366 16.6204 10.7596 17.2819 11.7413 18.2636C12.7231 19.2454 13.3846 20.5013 13.6388 21.8662C15.5003 20.9854 17.286 19.9523 18.9775 18.7775C24.845 14.5625 27.3163 10.2 27.5 3.71498ZM7.65251 22.3487C8.35097 23.0544 8.74276 24.0071 8.74276 25C8.74276 25.9928 8.35097 26.9456 7.65251 27.6512C6.51876 28.7837 3.12501 29.4825 1.71751 29.7312L-0.0399933 30.04L0.268757 28.2825C0.518757 26.875 1.21626 23.4812 2.34876 22.3475C3.06344 21.6658 4.01323 21.2856 5.00088 21.2858C5.98853 21.2861 6.93814 21.6667 7.65251 22.3487ZM6.25001 25C6.25045 24.8358 6.21831 24.6731 6.15544 24.5214C6.09257 24.3697 6.00023 24.232 5.88376 24.1162C5.64935 23.8819 5.33146 23.7502 5.00001 23.7502C4.66855 23.7502 4.35067 23.8819 4.11626 24.1162C3.63968 24.9765 3.30497 25.9081 3.12501 26.875C4.09227 26.6942 5.02416 26.3591 5.88501 25.8825C6.0011 25.7668 6.09313 25.6292 6.15578 25.4777C6.21842 25.3263 6.25045 25.1639 6.25001 25Z" fill="#FDFDFD"/>
</g>
<defs>
<clipPath id="clip0_63_11">
<rect width="30" height="30" fill="white"/>
</clipPath>
</defs>
</svg>
